HIERARCHY
ROOT Hips
{
	OFFSET -0.766329 105.751518 -1.111724
	CHANNELS 6 Xposition Yposition Zposition Xrotation Yrotation Zrotation
	JOINT Chest
	{
		OFFSET 0.248713 13.542801 1.638556
		CHANNELS 3 Xrotation Yrotation Zrotation
		JOINT Chest2
		{
			OFFSET -0.983785 21.282066 2.274284
			CHANNELS 3 Xrotation Yrotation Zrotation
			JOINT Chest3
			{
				OFFSET -0.692944 14.859848 -1.234697
				CHANNELS 3 Xrotation Yrotation Zrotation
				JOINT Neck
				{
					OFFSET 0.232811 17.225296 1.360520
					CHANNELS 3 Xrotation Yrotation Zrotation
					JOINT Head
					{
						OFFSET -0.412079 10.405945 1.172298
						CHANNELS 3 Xrotation Yrotation Zrotation
						End Site
						{
							OFFSET -0.408239 10.414001 1.099764
						}
					}
				}
				JOINT LeftCollar
				{
					OFFSET 4.527610 12.947464 3.697092
					CHANNELS 3 Xrotation Yrotation Zrotation
					JOINT LeftUpArm
					{
						OFFSET 14.104127 -5.601547 -8.842834
						CHANNELS 3 Xrotation Yrotation Zrotation
						JOINT LeftLowArm
						{
							OFFSET 4.135056 -33.504669 -0.259622
							CHANNELS 3 Xrotation Yrotation Zrotation
							JOINT LeftHand
							{
								OFFSET -1.321100 -28.037964 10.633655
								CHANNELS 3 Xrotation Yrotation Zrotation
								End Site
								{
									OFFSET -0.288738 -6.127861 2.324051
								}
							}
						}
					}
				}
				JOINT RightCollar
				{
					OFFSET -3.877347 13.026825 4.132398
					CHANNELS 3 Xrotation Yrotation Zrotation
					JOINT RightUpArm
					{
						OFFSET -14.404807 -6.080551 -8.001554
						CHANNELS 3 Xrotation Yrotation Zrotation
						JOINT RightLowArm
						{
							OFFSET -4.868902 -33.406982 -0.046885
							CHANNELS 3 Xrotation Yrotation Zrotation
							JOINT RightHand
							{
								OFFSET 2.554283 -27.771721 11.097852
								CHANNELS 3 Xrotation Yrotation Zrotation
								End Site
								{
									OFFSET 0.558256 -6.069786 2.425552
								}
							}
						}
					}
				}
			}
		}
	}
	JOINT LeftUpLeg
	{
		OFFSET 10.016021 -0.212128 0.231232
		CHANNELS 3 Xrotation Yrotation Zrotation
		JOINT LeftLowLeg
		{
			OFFSET 4.001475 -46.959927 -4.769034
			CHANNELS 3 Xrotation Yrotation Zrotation
			JOINT LeftFoot
			{
				OFFSET -0.209793 -42.715828 -13.262074
				CHANNELS 3 Xrotation Yrotation Zrotation
				JOINT LeftToe
				{
					OFFSET -0.055978 -16.674061 16.778927
					CHANNELS 3 Xrotation Yrotation Zrotation
					End Site
					{
						OFFSET 1.311543 -2.283145 23.507999
					}
				}
			}
		}
	}
	JOINT RightUpLeg
	{
		OFFSET -10.016028 0.211937 -0.231256
		CHANNELS 3 Xrotation Yrotation Zrotation
		JOINT RightLowLeg
		{
			OFFSET -2.165053 -47.116806 -4.396855
			CHANNELS 3 Xrotation Yrotation Zrotation
			JOINT RightFoot
			{
				OFFSET 0.863914 -42.173126 -14.874875
				CHANNELS 3 Xrotation Yrotation Zrotation
				JOINT RightToe
				{
					OFFSET -1.616149 -18.237207 14.978294
					CHANNELS 3 Xrotation Yrotation Zrotation
					End Site
					{
						OFFSET -4.238198 -4.599441 22.813131
					}
				}
			}
		}
	}
}
MOTION
Frames: 13
Frame Time: 0.033333
-0.766329 105.751526 -1.111722 0.000001 -0.000000 0.000000 -0.000001 0.000000 -0.000000 -0.000000 -0.000000 -0.000001 -0.000001 -0.000000 -0.000000 -0.000000 -0.000001 -0.000000 -0.000001 -0.000000 -0.000000 0.000001 -0.000001 -0.000001 -0.000001 -0.000001 0.000000 -0.000001 0.000003 -0.000001 -0.000001 0.000003 -0.000001 0.000000 -0.000001 -0.000001 -0.000001 0.000001 -0.000002 -0.000001 0.000001 0.000000 0.000001 0.000002 -0.000000 -0.000000 -0.000000 -0.000000 -0.000001 0.000000 -0.000000 -0.000000 0.000000 -0.000000 0.000001 0.000000 0.000000 0.000000 -0.000000 0.000000 -0.000001 0.000000 -0.000000 -0.000000 0.000000 0.000001 -0.000000 0.000000 -0.000000 
-0.773421 105.750305 -1.113382 -0.270172 -0.334856 -0.070554 0.368779 0.005905 -0.111522 -0.120303 -0.001092 -0.020314 -0.057636 -0.046876 0.152341 -0.231176 0.177079 -0.182179 -0.000001 -0.000000 -0.000000 -0.019541 0.374174 -0.080279 -0.191465 -0.092779 0.034434 0.086852 0.095234 0.152055 -0.000000 -0.000004 0.000002 0.082508 0.522429 0.036851 -0.316427 0.161892 0.004421 0.093865 -0.065888 -0.082560 -0.000001 0.000003 0.000001 0.173558 0.028464 0.091994 0.058463 0.039643 -0.079510 -0.168813 0.361034 0.222772 -0.000001 0.000000 0.000000 0.218890 -0.068108 0.114938 0.155050 -0.017078 -0.199768 0.032290 0.540344 0.172106 -0.000001 0.000000 0.000001 
-0.780781 105.748070 -1.116269 -0.105191 -0.381314 -0.065622 0.347239 0.008865 -0.223130 -0.294428 0.035722 -0.092327 0.006403 -0.096107 0.316939 -0.116852 0.235965 -0.203602 -0.000000 -0.000000 -0.000000 -0.052287 1.170295 0.047708 -0.315376 -0.274461 -0.008759 0.196243 -0.057966 -0.039343 0.000003 0.000005 0.000001 0.167719 0.950957 -0.000133 -0.065382 0.074354 0.027777 -0.228404 0.043420 -0.352552 -0.000001 -0.000003 0.000002 0.082557 0.022621 0.133341 -0.012715 -0.032858 -0.167812 0.020777 0.526171 0.229559 0.000000 0.000000 0.000000 0.303171 -0.059522 0.130004 -0.108576 0.026613 -0.260095 0.355273 0.521113 0.224690 0.000001 0.000001 0.000000 
-0.788402 105.751266 -1.118296 -0.323601 -0.330684 -0.089654 0.529769 0.010286 -0.231229 -0.516083 -0.003716 -0.009856 0.169122 -0.226730 0.238437 0.053047 0.300085 -0.267800 -0.000000 0.000000 -0.000000 -0.062711 1.302432 0.048611 -0.505303 -0.443943 -0.030093 0.585870 -0.095088 0.054070 0.000002 0.000003 -0.000001 0.182856 0.908838 0.011502 -0.159905 0.153666 0.018400 -0.095124 0.137914 -0.331360 0.000001 -0.000000 -0.000001 0.361794 0.043684 0.149502 -0.123545 -0.016158 -0.149880 0.075782 0.405158 0.121131 -0.000000 0.000000 -0.000001 0.469483 -0.071684 0.152067 -0.085818 0.052738 -0.195555 0.423265 0.421150 0.240089 -0.000001 -0.000000 0.000001 
-0.795298 105.757156 -1.125708 -0.541289 0.018286 -0.082509 0.947370 -0.020309 -0.178182 -0.289003 0.038142 -0.044213 -0.114558 -0.253922 0.230883 -0.335396 0.196394 -0.099026 -0.000000 -0.000000 -0.000000 0.216151 0.792159 0.060045 -0.751929 -0.856750 -0.108725 0.398320 -0.254809 0.394370 -0.000001 0.000003 0.000000 0.403742 1.143105 -0.063626 -0.393990 0.651783 0.177736 -0.342700 0.288153 -0.950608 0.000002 0.000001 0.000001 0.431910 0.053652 0.221542 -0.041337 -0.084155 -0.216539 -0.049013 0.383249 0.116199 -0.000000 -0.000000 -0.000001 0.634712 -0.069621 0.202215 -0.391684 0.025123 -0.099934 1.267413 -0.194294 0.067341 0.000000 -0.000000 -0.000001 
-0.802015 105.760307 -1.133466 -0.763915 -0.161500 -0.067139 1.245979 -0.020592 -0.192049 -0.491120 0.024027 -0.015904 -0.127649 -0.025305 0.197084 -0.162183 0.207659 -0.111615 -0.000000 -0.000000 0.000000 0.222963 0.561232 -0.053701 -0.623318 -0.770903 0.063344 0.531358 -0.207218 0.424351 -0.000003 0.000005 -0.000000 0.372389 1.015729 -0.093821 -0.574906 0.731433 0.228365 0.279344 0.209124 -0.951720 -0.000004 0.000000 0.000000 0.651418 0.070100 0.169812 -0.133340 -0.096627 -0.230018 -0.143578 0.383632 0.100363 -0.000000 0.000001 -0.000001 0.829850 -0.081916 0.140435 -0.435602 0.050302 -0.045541 1.350243 -0.283002 0.098710 -0.000000 -0.000000 -0.000002 
-0.808909 105.760780 -1.139066 -0.859156 -0.018805 -0.095119 1.161307 -0.032460 -0.122775 -0.400868 -0.006103 0.034157 -0.099181 -0.012047 0.119560 -0.169599 0.143943 -0.001414 -0.000000 -0.000000 0.000000 0.364783 -0.084914 -0.074255 -0.747807 -0.956873 0.024930 0.534883 -0.272374 0.762207 -0.000000 0.000003 0.000000 0.388688 0.703856 -0.017770 -0.619124 0.874578 0.136851 0.243693 0.328863 -0.929965 -0.000002 0.000003 0.000001 0.697525 0.062977 0.200894 -0.215043 -0.174648 -0.195672 0.017923 0.368398 0.054867 0.000000 0.000001 -0.000001 0.992857 -0.080622 0.205772 -0.524050 0.122607 -0.065190 1.359741 -0.513916 0.001606 0.000000 0.000000 -0.000001 
-0.811665 105.764122 -1.142946 -0.628107 -0.055241 -0.069613 1.064566 -0.021672 -0.256126 -0.778592 -0.021625 0.020853 0.248779 0.066028 0.192005 -0.141588 0.002591 0.098104 -0.000000 -0.000000 -0.000000 0.187391 0.424313 -0.020828 -0.475643 -0.626212 0.202455 0.149794 -0.266413 0.176757 -0.000001 0.000002 0.000003 0.286298 0.735458 -0.182087 -0.244178 0.395700 0.214817 -0.031475 0.322944 -0.515649 -0.000002 0.000002 -0.000001 0.452234 0.061374 0.207399 -0.153251 -0.134481 -0.224176 0.202836 0.286480 -0.006291 -0.000000 -0.000000 -0.000000 0.750273 -0.099893 0.177985 -0.136284 0.142788 -0.157357 0.895946 0.011938 0.202818 -0.000001 0.000001 -0.000000 
-0.810154 105.770752 -1.145117 -0.668000 0.101090 -0.110263 1.163428 -0.029890 -0.179317 -0.983514 -0.028157 0.003907 0.347363 -0.058445 0.168999 0.018485 -0.089996 0.052854 -0.000001 -0.000000 -0.000000 0.139716 0.620643 0.137962 -0.515165 -0.621475 0.163562 0.505261 -0.307113 -0.060641 -0.000001 0.000003 -0.000000 0.257794 0.901020 -0.253533 -0.107672 0.257108 0.265727 -0.166951 0.324816 -0.433700 -0.000001 -0.000002 -0.000001 0.706908 0.087006 0.239492 -0.295392 -0.128778 -0.180146 -0.074026 0.128755 -0.052006 0.000000 0.000001 -0.000001 0.869352 -0.111870 0.191175 -0.306638 0.055054 -0.092971 1.165715 -0.172425 0.108480 -0.000000 -0.000001 -0.000000 
-0.809715 105.776039 -1.145187 -0.694809 0.000929 -0.073299 0.888944 -0.008099 -0.254405 -0.753012 -0.010528 -0.020168 0.318386 -0.275933 0.217155 -0.073812 0.066327 -0.089340 -0.000001 0.000000 -0.000000 0.029092 1.147442 0.231535 -0.435058 -0.572755 0.165278 0.916545 -0.361776 -0.269401 -0.000002 0.000003 -0.000000 0.213998 0.799462 -0.291796 -0.048533 0.203154 0.273082 -0.157844 0.390841 -0.230703 -0.000001 0.000000 -0.000000 0.752133 0.055654 0.198198 -0.501975 -0.055797 -0.190587 0.109529 0.212963 -0.008939 -0.000000 0.000000 -0.000001 0.888085 -0.080407 0.105405 -0.266582 0.037091 -0.118194 0.735039 0.113907 0.155775 -0.000001 0.000000 -0.000001 
-0.804402 105.784660 -1.151080 -0.283661 0.035729 -0.059683 0.354006 0.024948 -0.330054 -0.180478 -0.080898 0.057289 -0.175594 -0.288745 0.175353 0.244148 -0.022757 -0.081840 0.000000 -0.000000 -0.000000 0.004714 1.106145 0.331520 -0.256712 -0.331883 0.057331 0.789577 -0.373443 -0.241508 -0.000000 0.000005 0.000001 0.130528 0.503346 -0.232453 0.000658 0.055853 0.139424 -0.100293 0.450928 0.062582 -0.000001 -0.000001 0.000001 0.533029 0.056212 0.165016 -0.423321 -0.126869 -0.178744 0.235589 0.231745 -0.042109 -0.000000 -0.000000 -0.000001 0.470715 -0.053162 0.094446 -0.186232 0.097162 -0.111844 0.622054 0.098537 0.113834 -0.000001 0.000001 -0.000002 
-0.797212 105.793098 -1.153583 -0.391841 -0.029519 -0.067559 0.637306 0.027507 -0.380911 0.047683 -0.134376 0.130815 -0.482242 -0.173792 0.137810 0.124520 -0.058882 -0.044512 -0.000000 0.000000 -0.000000 0.033544 0.914471 0.546028 -0.196647 -0.198190 -0.310739 0.784741 -0.196426 0.025468 0.000001 0.000003 0.000000 0.110320 0.544736 -0.230446 0.199589 -0.085924 0.213055 -0.259421 0.310415 -0.018858 -0.000001 0.000000 -0.000000 0.874334 0.061058 0.079151 -0.896452 -0.158858 -0.075826 0.526970 0.440528 0.020176 -0.000000 0.000001 0.000001 0.768384 -0.050831 0.053210 -0.353332 0.120097 -0.144353 0.892510 0.272915 0.192288 -0.000001 0.000001 -0.000000 
-0.788658 105.798553 -1.155644 -0.010556 0.029153 -0.163819 0.191014 0.026350 -0.263555 -0.091201 -0.162436 0.176680 -0.231756 -0.114791 0.061290 0.262225 -0.187910 0.076562 -0.000001 -0.000000 -0.000000 0.156816 0.443395 0.573472 -0.248109 -0.290962 -0.369005 0.546262 -0.296629 0.187964 0.000002 0.000001 0.000002 0.143855 0.612199 -0.214821 0.464599 -0.174523 0.284655 -0.630195 0.331951 -0.310183 -0.000000 -0.000001 -0.000000 0.394656 0.016244 0.153832 -0.684511 -0.258888 -0.098120 0.307172 0.565742 0.115282 -0.000000 0.000000 -0.000000 0.423463 -0.010616 0.117528 -0.689148 0.082762 -0.037010 1.137244 -0.221585 -0.015978 0.000000 0.000000 0.000001 
